<svg width="58" height="40" viewBox="0 0 58 40" fill="none" xmlns="http://www.w3.org/2000/svg">
<path d="M18.8575 4.11812L18.4582 4.4085L18.2866 4.17092L19.3788 3.37897L19.5504 3.61325L19.1512 3.90364L19.8903 4.91998L19.5999 5.13116L18.8608 4.11483L18.8575 4.11812Z" fill="#33673A"/>
<path d="M20.679 3.46147C20.4612 3.0556 20.613 2.58703 21.0453 2.35604C21.4743 2.12506 21.9528 2.25045 22.1706 2.65963C22.3917 3.0655 22.2333 3.53407 21.8043 3.76506C21.3753 3.99604 20.8968 3.86735 20.679 3.46147ZM21.8505 2.82791C21.7119 2.57053 21.4314 2.49133 21.1905 2.62332C20.9463 2.75532 20.8605 3.0292 20.9991 3.28989C21.1377 3.55057 21.4182 3.62646 21.6591 3.49447C21.9033 3.36248 21.9891 3.08859 21.8505 2.82791Z" fill="#33673A"/>
<path d="M24.2463 1.78848L24.5532 1.67629L24.771 2.26695C24.6555 2.44514 24.4608 2.59033 24.2529 2.66622C23.7975 2.83451 23.3454 2.64643 23.1837 2.20756C23.022 1.76869 23.2431 1.33311 23.7051 1.16152C23.9592 1.06913 24.2034 1.07572 24.4047 1.18792L24.2628 1.46511C24.1143 1.39251 23.9724 1.38591 23.8272 1.4387C23.5467 1.541 23.4213 1.80168 23.5236 2.07886C23.6226 2.34944 23.8866 2.47154 24.1638 2.36924C24.2562 2.33625 24.3354 2.28675 24.4014 2.21085L24.2463 1.78519V1.78848Z" fill="#33673A"/>
<path d="M27.0546 1.5674L27.1173 1.84787L25.9491 2.10526L25.6158 0.59726L26.7543 0.34317L26.817 0.623654L26.025 0.798542L26.0976 1.12523L26.7972 0.970137L26.8566 1.24071L26.157 1.3958L26.2362 1.74558L27.0579 1.56409L27.0546 1.5674Z" fill="#33673A"/>
<path d="M28.4241 0.402578L27.9324 0.44877L27.906 0.158387L29.2491 0.0329933L29.2755 0.323376L28.7838 0.369578L28.8993 1.6202L28.5429 1.65319L28.4274 0.402578H28.4241Z" fill="#33673A"/>
<path d="M31.8923 0.0560907L31.8296 1.60039L31.4732 1.5872L31.4996 0.953633L30.7968 0.923936L30.7704 1.5575L30.414 1.5443L30.4767 0L30.8331 0.0131919L30.81 0.623654L31.5128 0.653351L31.5392 0.0428988L31.8956 0.0560907H31.8923Z" fill="#33673A"/>
<path d="M34.2518 1.66309L34.2023 1.94687L33.0242 1.73899L33.2915 0.217789L34.4432 0.419071L34.3937 0.702858L33.5951 0.560959L33.5357 0.890938L34.2419 1.01633L34.1924 1.29022L33.4862 1.16483L33.4235 1.5179L34.2518 1.66309Z" fill="#33673A"/>
<path d="M36.2284 2.50783L36.0733 2.00626L36.0568 1.99967L35.7598 1.90727L35.6312 2.31975L35.288 2.21085L35.7499 0.735844L36.3868 0.937136C36.7828 1.06253 36.9643 1.343 36.8587 1.67298C36.7894 1.89407 36.6277 2.02277 36.4099 2.04257L36.5914 2.62003L36.2251 2.50453L36.2284 2.50783ZM36.2845 1.21101L36.0073 1.12523L35.8456 1.63999L36.1228 1.72578C36.3307 1.79178 36.466 1.72579 36.5188 1.5674C36.5683 1.40571 36.4924 1.27701 36.2845 1.21101Z" fill="#33673A"/>
<path d="M20.613 37.0863L19.9959 36.7233L19.7088 36.9378L19.3921 36.753L20.7681 35.773L21.0717 35.9512L20.8836 37.6307L20.5602 37.4394L20.6097 37.0863H20.613ZM20.6526 36.7959L20.7417 36.1623L20.2302 36.5484L20.6526 36.7959Z" fill="#33673A"/>
<path d="M23.2035 37.8089L23.5038 37.9343L23.2596 38.5118C23.0517 38.5646 22.8108 38.5349 22.6062 38.4491C22.1574 38.261 21.9561 37.8155 22.1376 37.3832C22.3191 36.9543 22.7778 36.786 23.2332 36.9774C23.484 37.083 23.6556 37.2546 23.7249 37.4756L23.4312 37.5812C23.3751 37.4261 23.2761 37.3272 23.1309 37.2645C22.8537 37.149 22.5864 37.2546 22.4709 37.5251C22.3587 37.7924 22.4709 38.0597 22.7415 38.1752C22.8306 38.2115 22.923 38.2313 23.0253 38.2214L23.2002 37.8023L23.2035 37.8089Z" fill="#33673A"/>
<path d="M25.5399 39.0529L24.8469 38.8649L24.6291 39.1486L24.276 39.0529L25.3452 37.7396L25.6851 37.832L25.9491 39.505L25.5861 39.406L25.5399 39.0497V39.0529ZM25.5036 38.7626L25.4211 38.1257L25.0317 38.6339L25.5036 38.7626Z" fill="#33673A"/>
<path d="M27.3285 38.1851L27.6816 38.2412L27.4407 39.769L27.0876 39.7129L27.3285 38.1851Z" fill="#33673A"/>
<path d="M30.2853 38.4557L30.216 40L29.9223 39.9868L29.1963 39.0134L29.1534 39.9505L28.8003 39.934L28.8696 38.3897L29.1666 38.4029L29.8926 39.3763L29.9355 38.4392L30.2886 38.4557H30.2853Z" fill="#33673A"/>
<path d="M31.4535 39.8218L31.5525 39.5446C31.6911 39.6271 31.8891 39.6799 32.0739 39.6634C32.285 39.6469 32.3642 39.5677 32.3576 39.4753C32.3345 39.1882 31.4535 39.4588 31.4073 38.8847C31.3875 38.624 31.5789 38.3864 32.0178 38.3501C32.2125 38.3336 32.4137 38.3633 32.5622 38.4425L32.4731 38.723C32.3246 38.6537 32.1729 38.6273 32.0376 38.6372C31.8264 38.6537 31.7505 38.7395 31.7604 38.8385C31.7835 39.1222 32.6645 38.8517 32.7107 39.4192C32.7305 39.6766 32.5358 39.9142 32.097 39.9505C31.8528 39.9703 31.602 39.9175 31.4568 39.8251L31.4535 39.8218Z" fill="#33673A"/>
<path d="M34.0307 38.393L33.5457 38.492L33.4863 38.2049L34.8095 37.9376L34.8689 38.2247L34.3838 38.3237L34.6346 39.5545L34.2848 39.6271L34.034 38.3963L34.0307 38.393Z" fill="#33673A"/>
<path d="M38.4725 36.6408L39.0862 38.063L38.7563 38.2049L38.5055 37.6208L37.8587 37.898L38.1095 38.4821L37.7795 38.624L37.169 37.2018L37.499 37.0599L37.7399 37.6208L38.3867 37.3437L38.1458 36.7827L38.4758 36.6408H38.4725Z" fill="#33673A"/>
<path d="M39.9575 36.8454L39.5087 36.1062L39.8156 35.9215L40.2578 36.6507C40.4096 36.9015 40.5812 36.9378 40.766 36.8256C40.9541 36.7134 40.997 36.5418 40.8452 36.291L40.403 35.5618L40.7066 35.377L41.1554 36.1161C41.393 36.5055 41.2973 36.8553 40.9244 37.083C40.5482 37.3107 40.1951 37.2315 39.9608 36.8421L39.9575 36.8454Z" fill="#33673A"/>
<path d="M42.7558 33.8195L43.7293 35.0239L43.5016 35.2087L42.3103 34.9645L42.901 35.6938L42.6271 35.9148L41.6536 34.7104L41.8846 34.5256L43.0726 34.7731L42.4819 34.0439L42.7558 33.8228V33.8195Z" fill="#33673A"/>
<path d="M44.8744 32.7702L45.0988 32.5326L45.5575 32.9616C45.5344 33.1727 45.4255 33.3905 45.2737 33.5522C44.9404 33.9053 44.452 33.9383 44.1121 33.6215C43.7722 33.3014 43.7722 32.8131 44.1121 32.4534C44.2969 32.2554 44.5213 32.1531 44.749 32.163V32.4765C44.584 32.4765 44.452 32.5326 44.3464 32.6481C44.1418 32.8659 44.1451 33.1562 44.3596 33.3542C44.5708 33.5522 44.8612 33.5423 45.0625 33.3278C45.1285 33.2552 45.178 33.1794 45.2044 33.0804L44.8744 32.7702Z" fill="#33673A"/>
<path d="M46.9963 30.8926L47.2306 31.0609L46.531 32.031L45.277 31.1269L45.9601 30.1798L46.1944 30.3481L45.7192 31.0081L45.9931 31.2061L46.4122 30.6253L46.6366 30.787L46.2175 31.371L46.5079 31.5789L46.9996 30.8959L46.9963 30.8926Z" fill="#33673A"/>
<path d="M48.3922 29.1008L47.8708 29.1569L47.8642 29.1734L47.7157 29.4473L48.0952 29.6519L47.9236 29.9653L46.564 29.2262L46.8841 28.6388C47.0821 28.2758 47.3923 28.1505 47.6992 28.3154C47.9038 28.4276 47.9962 28.6124 47.9764 28.8302L48.5803 28.7642L48.3955 29.1008H48.3922ZM47.1283 28.7939L46.9897 29.0513L47.4649 29.3087L47.6035 29.0513C47.7091 28.8599 47.6728 28.7147 47.5243 28.6322C47.3758 28.5497 47.2339 28.5992 47.1316 28.7939H47.1283Z" fill="#33673A"/>
<path d="M13.8382 11.315C14.0164 10.7606 14.1946 10.2524 14.3728 9.80036C14.551 9.34499 14.7259 8.95562 14.9008 8.63554C15.0724 8.31216 15.2407 8.06798 15.4057 7.89969C15.5212 7.771 15.5608 7.66211 15.5245 7.56641C15.4189 7.29913 15.2803 7.06815 15.1021 6.86686C14.9272 6.66887 14.6665 6.60617 14.32 6.68536C14.0296 6.75136 13.7524 6.97245 13.4917 7.34203C13.2277 7.7149 12.9802 8.18677 12.7492 8.75434C12.5149 9.3219 12.3004 9.96865 12.1057 10.688C11.9077 11.4074 11.7229 12.1564 11.5546 12.9385C11.5282 13.0738 11.4754 13.176 11.3929 13.2354C11.3137 13.2981 11.2114 13.341 11.086 13.3707C10.756 13.3872 10.4095 13.4235 10.0432 13.4796C9.67695 13.5357 9.30735 13.5918 8.92785 13.6479C8.64406 13.6842 8.52526 13.5654 8.56486 13.2948C8.60446 12.8362 8.62426 12.4072 8.61766 12.0079C8.61436 11.6086 8.58796 11.249 8.54506 10.9256C8.39656 9.95875 8.08636 9.2922 7.61777 8.92922C7.14917 8.56625 6.59808 8.45406 5.96448 8.59925C5.52229 8.70154 5.06359 8.89953 4.5884 9.19651C4.1132 9.49349 3.6446 9.85977 3.18591 10.292C2.72721 10.7243 2.29162 11.2028 1.88242 11.7241C1.47322 12.2455 1.12013 12.7834 0.826431 13.3377C0.532734 13.8921 0.308336 14.4399 0.159838 14.981C0.00803898 15.5255 -0.0348605 16.0271 0.0278389 16.4923C0.0674385 16.8619 0.225837 17.1127 0.493134 17.2447C0.763732 17.38 1.03763 17.413 1.31153 17.3503C1.38083 17.3338 1.47982 17.2975 1.61182 17.2381C1.74052 17.1655 1.79662 17.0368 1.78342 16.8487C1.77022 16.4758 1.81312 16.0535 1.90882 15.5915C2.00452 15.1262 2.14312 14.6478 2.32132 14.1594C2.49952 13.6677 2.71731 13.1925 2.97141 12.724C3.22881 12.2587 3.50601 11.833 3.8096 11.4437C4.1132 11.0543 4.4366 10.7276 4.77979 10.4603C5.12299 10.193 5.48269 10.0149 5.85558 9.92906C6.15918 9.85976 6.38688 9.95546 6.54198 10.2161C6.69707 10.4801 6.78617 10.8167 6.80927 11.2325C6.87197 12.0739 6.84227 12.9022 6.72348 13.7106C6.72348 13.8261 6.67728 13.935 6.59148 14.034C6.50568 14.133 6.40338 14.2056 6.28128 14.2452C5.75328 14.4102 5.25499 14.6016 4.78969 14.816C4.3244 15.0305 3.9218 15.2747 3.5852 15.5486C3.24861 15.8225 2.99121 16.1294 2.81961 16.4758C2.64471 16.8223 2.59851 17.2018 2.67771 17.6176C2.71401 17.7693 2.78991 17.9112 2.90541 18.0432C3.02421 18.1752 3.15621 18.2247 3.30801 18.1884C3.40371 18.1653 3.47301 18.1158 3.51261 18.0333C3.8228 17.5549 4.1891 17.1424 4.6115 16.7893C5.03059 16.4395 5.48929 16.1426 5.98428 15.8984C6.01068 15.8918 6.02718 15.8852 6.03378 15.8753C6.04038 15.8654 6.05688 15.8588 6.08328 15.8522C6.15258 15.8357 6.20538 15.8555 6.23838 15.9149C6.27468 15.971 6.27798 16.0469 6.25818 16.1393C5.89518 17.3998 5.44969 18.5283 4.92169 19.5248C4.397 20.5247 3.8855 21.277 3.39381 21.7819C3.27831 21.9106 3.24531 22.0261 3.29811 22.1317C3.37731 22.2867 3.53241 22.4517 3.7601 22.6233C3.9878 22.7949 4.2881 22.8378 4.661 22.7553C5.07349 22.6596 5.46619 22.3857 5.83248 21.9304C6.19878 21.475 6.53868 20.9107 6.84887 20.2376C7.15907 19.5644 7.43297 18.8187 7.67387 18.0003C7.91476 17.182 8.11276 16.357 8.27116 15.5222C8.32726 15.2615 8.48566 15.1031 8.74966 15.0437C9.09615 14.9777 9.43935 14.9216 9.77595 14.8721C10.1125 14.8226 10.4524 14.783 10.7923 14.7467C11.0497 14.7302 11.1586 14.8589 11.119 15.1295C10.9375 16.2316 10.7956 17.215 10.6966 18.0795C10.5976 18.9441 10.5613 19.5611 10.5877 19.934C10.6273 20.4191 10.7494 20.7556 10.9606 20.947C11.1718 21.1384 11.416 21.2011 11.6899 21.1384C11.746 21.1252 11.8252 21.0922 11.9275 21.0394C12.0562 20.9668 12.1189 20.8579 12.1156 20.7128C12.175 19.8284 12.2575 18.9012 12.3697 17.9343C12.4819 16.9642 12.6469 15.9776 12.8647 14.9678C12.8944 14.7863 12.9901 14.694 13.1485 14.6841L13.2112 14.6708C13.4884 14.6082 13.66 14.4432 13.7293 14.1825C13.7986 13.9185 13.7887 13.6743 13.693 13.4499C13.6633 13.3839 13.6072 13.3608 13.5247 13.3806C13.3201 13.3707 13.2508 13.2618 13.3201 13.0572C13.4818 12.4402 13.6534 11.8528 13.8316 11.2952L13.8382 11.315Z" fill="#33673A"/>
<path d="M47.5012 8.02178C47.3956 8.31217 47.2702 8.59265 47.125 8.86653C46.9798 9.14041 46.8148 9.38129 46.6366 9.58588C46.4551 9.79047 46.2637 9.91916 46.0591 9.96535C45.9271 9.99505 45.8446 9.88946 45.8149 9.64198C45.772 9.3483 45.7918 9.03152 45.8776 8.68834C45.9634 8.34516 46.0525 7.99208 46.1482 7.6225C46.2439 7.25293 46.3231 6.87346 46.3858 6.48739C46.4485 6.10131 46.432 5.71523 46.3462 5.32916C46.2538 4.91998 46.0987 4.6329 45.8875 4.46791C45.673 4.30292 45.4387 4.20063 45.1813 4.16433C44.9239 4.12804 44.65 4.12474 44.3596 4.15444C44.0692 4.18413 43.8085 4.19073 43.5709 4.17423C43.3333 4.16103 43.132 4.08843 42.9637 3.96304C42.7954 3.83765 42.6964 3.60007 42.6667 3.25359L42.6403 3.22059C42.5776 3.17109 42.5083 3.1414 42.4291 3.1282C42.3499 3.115 42.2806 3.115 42.2212 3.1282C42.076 3.16119 41.9572 3.23049 41.8615 3.33278C41.7658 3.43838 41.6866 3.55717 41.6305 3.68916C41.5711 3.82116 41.5348 3.96635 41.5216 4.12144C41.5051 4.27653 41.515 4.42172 41.5447 4.55371C41.581 4.7088 41.6503 4.84409 41.7493 4.95298C41.8516 5.06187 41.9539 5.13117 42.0628 5.15757C42.4225 5.24007 42.571 5.41496 42.505 5.68224C42.4588 5.91982 42.4093 6.1772 42.3598 6.45439C42.3103 6.73157 42.2542 7.00875 42.1915 7.28923C42.1288 7.56971 42.0661 7.83699 42.0067 8.09108C41.9572 8.28906 41.9143 8.46395 41.8747 8.61574H41.8549C41.7757 8.92922 41.6668 9.2394 41.5381 9.54628C41.4061 9.85316 41.2411 10.1435 41.0464 10.4174C40.8484 10.6913 40.6207 10.9256 40.3567 11.1269C40.0927 11.3282 39.7792 11.4668 39.4196 11.5493C39.0698 11.6285 38.7992 11.5955 38.5979 11.4437C38.3999 11.2919 38.2679 11.0741 38.2019 10.787C38.1623 10.6187 38.1557 10.4702 38.1755 10.3382C38.1953 10.2062 38.3042 10.1073 38.5055 10.0347C39.0269 9.87627 39.4757 9.66178 39.8552 9.3846C40.2346 9.10742 40.5415 8.81043 40.7791 8.49035C41.0167 8.17027 41.185 7.84029 41.2906 7.50041C41.3962 7.16053 41.4292 6.85036 41.3896 6.56658C41.3302 6.2003 41.1586 5.91652 40.8715 5.71853C40.5844 5.51724 40.1785 5.48095 39.6505 5.59974C39.1226 5.72184 38.6507 5.97261 38.2415 6.35869C37.829 6.74476 37.4891 7.19024 37.2218 7.69181C36.9512 8.19667 36.7565 8.73783 36.6377 9.3153C36.5717 9.63207 36.5387 9.93566 36.5288 10.2293C36.3011 10.9454 36.0536 11.5294 35.7863 11.9848C35.4662 12.526 35.0735 12.9814 34.6016 13.3575C34.5356 13.3971 34.496 13.4202 34.4828 13.4235C34.4234 13.4367 34.4102 13.3839 34.4465 13.2618C34.5092 13.0441 34.5884 12.7702 34.6841 12.4402C34.7798 12.1102 34.8755 11.7505 34.9778 11.3678C35.0801 10.985 35.1824 10.5956 35.2913 10.2062C35.3969 9.81687 35.4893 9.45058 35.5718 9.10741C35.651 8.76753 35.717 8.46726 35.7632 8.20987C35.8127 7.95249 35.8358 7.7677 35.8358 7.65221C35.8127 7.39153 35.684 7.16053 35.4464 6.95265C35.2088 6.74806 34.8821 6.69527 34.4597 6.79096L34.3871 6.80747C34.3145 6.82396 34.2815 6.87016 34.2848 6.94605C34.2749 7.01205 34.2617 7.09454 34.2452 7.19354C34.2287 7.29253 34.2056 7.40802 34.1726 7.54331C34.1726 7.59281 34.1528 7.62251 34.1165 7.63241C34.0934 7.63901 34.0571 7.61591 34.0043 7.56311C33.6908 7.19353 33.2354 7.07474 32.6348 7.21333C32.2388 7.30573 31.8296 7.50702 31.4072 7.8172C30.9848 8.12738 30.6086 8.52335 30.2753 8.99522C29.942 9.47038 29.6747 10.0215 29.48 10.6484C29.3745 10.9817 29.3084 11.3282 29.2755 11.6878C29.2227 11.8594 29.1567 12.0475 29.0808 12.2554C28.9752 12.5458 28.8498 12.8263 28.7046 13.1001C28.5594 13.374 28.3944 13.6149 28.2162 13.8195C28.0347 14.0241 27.8433 14.1528 27.6387 14.199C27.5067 14.2287 27.4242 14.1231 27.3945 13.8756C27.3681 13.6545 27.4011 13.3839 27.4935 13.0671C27.5859 12.7504 27.6849 12.4072 27.7905 12.0409C27.8961 11.6746 27.9852 11.3018 28.0545 10.919C28.1238 10.5362 28.1205 10.1765 28.0446 9.83996C27.9885 9.59908 27.8895 9.39779 27.7443 9.2361C27.5991 9.07441 27.4341 8.94572 27.2493 8.85663C27.0645 8.76754 26.8731 8.70813 26.6784 8.68503C26.4837 8.66194 26.3055 8.66524 26.1504 8.70154C25.8369 8.77414 25.5366 8.95232 25.2396 9.2427C24.9459 9.53308 24.672 9.87627 24.4245 10.2722C24.3981 10.3151 24.3717 10.3415 24.3453 10.3481C24.309 10.358 24.2859 10.3184 24.2793 10.2293C24.2496 9.98516 24.1176 9.76737 23.8833 9.57928C23.6523 9.3912 23.3289 9.34499 22.923 9.44069L22.8504 9.45719C22.7778 9.47369 22.7448 9.51988 22.7481 9.59578C22.7481 9.77397 22.7151 10.0149 22.6392 10.3217C22.5633 10.6286 22.4709 10.9751 22.3554 11.3546C22.2399 11.734 22.1178 12.1366 21.9858 12.559C21.8637 12.955 21.7581 13.341 21.6723 13.7172C21.6426 13.7997 21.6129 13.8888 21.5799 13.9779C21.4743 14.2683 21.3489 14.5488 21.2037 14.8226C21.0585 15.0965 20.8935 15.3374 20.7153 15.542C20.5338 15.7466 20.3424 15.8753 20.1378 15.9215C19.9926 15.9545 19.9134 15.8456 19.8936 15.5981C19.8771 15.4133 19.9167 15.1361 20.0157 14.7632C20.1147 14.3937 20.2203 13.9911 20.3358 13.5621C20.481 13.0869 20.613 12.6184 20.7318 12.1531C20.8539 11.6878 20.9034 11.3348 20.8836 11.084C20.8605 10.8101 20.7285 10.5758 20.4942 10.3778C20.2599 10.1798 19.9299 10.127 19.5108 10.2227C19.392 10.2491 19.3359 10.3151 19.3458 10.4108C19.3458 10.5758 19.3161 10.787 19.2534 11.0477C19.194 11.3084 19.1148 11.5988 19.0159 11.9188C18.9169 12.2389 18.8113 12.5755 18.6991 12.9319C18.5836 13.2882 18.4813 13.6446 18.3856 14.0076C18.3229 14.2254 18.2371 14.4795 18.1315 14.7665C18.0259 15.0569 17.9005 15.3374 17.7553 15.6113C17.6101 15.8852 17.4451 16.1261 17.2669 16.3306C17.0854 16.5352 16.894 16.6639 16.6894 16.7101C16.5442 16.7431 16.4617 16.6342 16.4452 16.3867C16.4254 16.1888 16.4683 15.8885 16.5805 15.4826C16.6894 15.0767 16.8082 14.6511 16.9402 14.1957C17.0689 13.7436 17.191 13.3047 17.3032 12.8791C17.4154 12.4567 17.4616 12.1201 17.4418 11.8693C17.4187 11.5988 17.2867 11.3612 17.0524 11.1632C16.8181 10.9652 16.4881 10.9124 16.069 11.0081C15.9469 11.0345 15.8941 11.1005 15.904 11.1962C15.904 11.4635 15.8215 11.8495 15.6664 12.361C15.5113 12.8725 15.343 13.4202 15.1681 14.0109C14.9899 14.6016 14.8381 15.1823 14.7061 15.7565C14.5741 16.3306 14.5345 16.8058 14.584 17.1886C14.6203 17.3965 14.683 17.5615 14.7754 17.6868C14.8678 17.8122 14.98 17.9046 15.1087 17.9706C15.2407 18.0366 15.376 18.0729 15.5179 18.0861C15.6598 18.0993 15.805 18.0861 15.9502 18.0531C16.3495 17.9607 16.6993 17.799 17.0029 17.5648C17.3032 17.3305 17.5672 17.05 17.7949 16.72C17.8411 16.6474 17.8939 16.6012 17.9533 16.588C18.0259 16.5715 18.0952 16.6309 18.1645 16.7662C18.2932 17.0005 18.4747 17.1556 18.7057 17.2282C18.9367 17.3008 19.1676 17.3107 19.3953 17.2612C19.8507 17.1556 20.2467 16.9543 20.5833 16.6573C20.9199 16.3603 21.207 16.0106 21.4446 15.6146C21.4446 15.6113 21.4479 15.608 21.4512 15.6047C21.4611 15.6773 21.4743 15.7466 21.4941 15.8126C21.5502 16.0007 21.6294 16.1492 21.735 16.2515C21.8406 16.3537 21.9627 16.423 22.1046 16.4593C22.2465 16.4956 22.395 16.5088 22.5501 16.4989C22.7052 16.489 22.857 16.4659 22.9989 16.4329C23.0715 16.4164 23.0979 16.3735 23.0814 16.3009C23.022 16.037 23.0286 15.6971 23.1045 15.2813C23.1804 14.8655 23.2959 14.4234 23.4543 13.9581C23.6127 13.4928 23.8008 13.021 24.0219 12.5491C24.243 12.0739 24.4707 11.6449 24.7116 11.2523C24.9492 10.8629 25.1868 10.5362 25.4178 10.2755C25.6488 10.0149 25.86 9.85977 26.0514 9.81687C26.1834 9.78717 26.2725 9.86636 26.3154 10.061C26.3682 10.2887 26.3451 10.5989 26.2527 10.985C26.157 11.3744 26.0514 11.7868 25.9293 12.2257C25.8072 12.6646 25.6983 13.1001 25.6026 13.5324C25.5069 13.9647 25.4838 14.3475 25.5333 14.6774C25.5663 14.8853 25.6323 15.0503 25.7247 15.1757C25.8171 15.3011 25.926 15.3935 26.0547 15.4595C26.1834 15.5255 26.3187 15.5618 26.4606 15.575C26.6025 15.5882 26.7444 15.575 26.8896 15.542C27.345 15.4364 27.741 15.2351 28.0776 14.9381C28.4142 14.6412 28.7013 14.2914 28.9389 13.8954C29.0907 13.6446 29.2227 13.3806 29.3415 13.1068C29.3811 13.2552 29.4272 13.3938 29.4866 13.5225C29.6021 13.7733 29.7539 13.9845 29.9453 14.1561C30.1367 14.3277 30.3611 14.4432 30.6218 14.5026C30.8825 14.562 31.1696 14.5587 31.4798 14.4861C31.7669 14.4201 32.0309 14.2782 32.2718 14.0571C32.3114 14.0109 32.351 13.9812 32.384 13.9746C32.4203 13.9647 32.4269 14.0208 32.4038 14.1396C32.384 14.2188 32.3675 14.2815 32.351 14.3211C32.2949 14.5224 32.1761 14.6643 31.9946 14.7434C31.9484 14.7665 31.9022 14.7863 31.856 14.8028C31.8098 14.8193 31.757 14.8424 31.7009 14.8655C31.427 14.9909 31.1168 15.1328 30.7736 15.2879C30.4304 15.443 30.0806 15.6146 29.7242 15.8027C29.3678 15.9908 29.0247 16.1986 28.6914 16.4296C28.3581 16.6573 28.071 16.9081 27.8301 17.1787C27.5892 17.4493 27.4143 17.7496 27.3054 18.0762C27.1965 18.4029 27.1866 18.756 27.2724 19.1256C27.345 19.439 27.4836 19.67 27.6882 19.8251C27.8928 19.9802 28.1205 20.0858 28.368 20.1419C28.6155 20.198 28.863 20.2211 29.1138 20.2079C29.3646 20.1947 29.5592 20.1716 29.7044 20.1386C30.2555 20.0132 30.7538 19.769 31.196 19.4093C31.6382 19.0497 32.0276 18.6141 32.3675 18.1059C32.7074 17.5978 33.0077 17.0467 33.2684 16.4494C33.5291 15.8522 33.7601 15.2516 33.9647 14.6477C34.034 14.4564 34.1594 14.3079 34.3376 14.2023C34.6907 13.9812 35.0108 13.7403 35.2913 13.4796C35.5718 13.2189 35.8292 12.9121 36.0569 12.5557C36.2714 12.2224 36.4694 11.8363 36.6476 11.4041C36.707 11.6054 36.7796 11.7835 36.872 11.932C37.0337 12.1993 37.2284 12.4039 37.4495 12.5491C37.6739 12.6943 37.9247 12.7834 38.2019 12.8131C38.4824 12.8428 38.7629 12.8263 39.0533 12.7603C39.5681 12.6415 40.0168 12.4336 40.3996 12.1399C40.7791 11.8429 41.1025 11.4998 41.3665 11.1038C41.6305 10.7078 41.845 10.2821 42.0133 9.82677C42.1519 9.45059 42.2641 9.08431 42.3664 8.71803H42.3928C42.4555 8.50025 42.5149 8.26267 42.571 8.00199C42.6271 7.7413 42.6799 7.48062 42.7327 7.21664C42.7855 6.95265 42.835 6.68867 42.8812 6.42469C42.9274 6.16071 42.9637 5.91982 42.9901 5.69873C43.0297 5.42485 43.1617 5.25986 43.3894 5.20707C43.4356 5.19717 43.5016 5.19386 43.5775 5.20046C43.8646 5.23676 44.1121 5.30936 44.32 5.41825C44.5279 5.52714 44.6665 5.72843 44.7325 6.01551C44.7919 6.26629 44.7688 6.56988 44.6731 6.91966C44.5741 7.26943 44.4619 7.64231 44.3332 8.03168C44.2045 8.42106 44.0956 8.82693 43.9999 9.246C43.9042 9.66508 43.8877 10.0644 43.9504 10.4438C43.9867 10.6517 44.0494 10.8167 44.1418 10.9421C44.2342 11.0675 44.3464 11.1599 44.4751 11.2259C44.6038 11.2919 44.7424 11.3282 44.8843 11.3414C45.0262 11.3546 45.1714 11.3414 45.3166 11.3084C45.7786 11.2028 46.1746 11.0015 46.5112 10.7012C46.8478 10.4042 47.1349 10.0544 47.3725 9.65848C47.6101 9.2625 47.8081 8.84013 47.9632 8.39466C48.1183 7.94919 48.247 7.52351 48.346 7.12094L47.752 7.25623C47.6893 7.47402 47.6035 7.7248 47.4979 8.01518L47.5012 8.02178ZM38.225 9.3714C38.291 9.05462 38.3867 8.73124 38.5154 8.40456C38.6441 8.07788 38.786 7.78089 38.9444 7.51031C39.1028 7.23973 39.2744 7.01205 39.4592 6.82396C39.644 6.63587 39.832 6.52038 40.0234 6.47749C40.2148 6.43459 40.3567 6.44778 40.4491 6.52038C40.5415 6.59297 40.5976 6.69857 40.6141 6.83386C40.6306 7.01865 40.5976 7.24303 40.5118 7.50372C40.426 7.7644 40.2907 8.02838 40.1059 8.29897C39.9211 8.56955 39.6935 8.82033 39.4262 9.05132C39.1556 9.2823 38.8487 9.46709 38.4989 9.59578L38.4263 9.61228C38.3537 9.62878 38.2976 9.61558 38.258 9.57598C38.2184 9.53638 38.2052 9.46709 38.2217 9.3747L38.225 9.3714ZM31.9979 15.6344C31.8527 16.0964 31.6844 16.5418 31.4996 16.9708C31.3148 17.3998 31.1168 17.7792 30.9089 18.1125C30.701 18.4458 30.4865 18.7197 30.2621 18.9342C30.041 19.1487 29.8199 19.2806 29.6054 19.3301C29.3051 19.3994 29.0742 19.3763 28.9158 19.2609C28.7574 19.1454 28.6584 19.0101 28.6221 18.855C28.5231 18.4227 28.5594 18.0366 28.7277 17.7034C28.896 17.3668 29.1369 17.0665 29.4503 16.7992C29.7605 16.5319 30.107 16.2976 30.4832 16.0964C30.8594 15.8951 31.2092 15.7268 31.5326 15.5915C31.5788 15.5684 31.625 15.5486 31.6712 15.5321C31.7174 15.5156 31.7636 15.4958 31.8098 15.4727C31.8329 15.4661 31.8494 15.4595 31.8527 15.4529C31.856 15.4463 31.8659 15.4397 31.8791 15.4364C32.0111 15.4067 32.0507 15.4727 32.0012 15.6344H31.9979ZM33.4862 9.96535C33.3707 10.4603 33.2189 10.9454 33.0242 11.4173C32.8295 11.8924 32.6084 12.3049 32.3609 12.6613C32.1134 13.0144 31.8758 13.2189 31.6481 13.2717C31.4303 13.3212 31.2686 13.2717 31.1564 13.1199C31.0475 12.9682 30.9782 12.757 30.9551 12.4831C30.9122 11.9617 30.9584 11.4536 31.1003 10.9619C31.2389 10.4702 31.4204 10.0247 31.6382 9.63537C31.8593 9.2427 32.1002 8.91933 32.3642 8.66194C32.6282 8.40456 32.8691 8.25277 33.0836 8.20327C33.3971 8.13067 33.5753 8.31217 33.6248 8.74444C33.6479 9.06782 33.6017 9.47699 33.4895 9.96866L33.4862 9.96535Z" fill="#33673A"/>
<path d="M48.6067 1.6334C48.2899 1.47171 48.0127 1.42882 47.7751 1.50471C47.6827 1.51131 47.6563 1.58061 47.6959 1.7093C47.8708 2.18117 47.9632 2.64313 47.9632 3.09851C47.9632 3.55388 47.9203 3.96306 47.8213 4.33263C47.7982 4.37553 47.818 4.43162 47.8741 4.49432C47.9302 4.56031 48.0193 4.62301 48.1315 4.68241C48.2899 4.7649 48.4285 4.7847 48.5473 4.74511C48.6661 4.70551 48.7486 4.64281 48.7915 4.55701C48.874 4.39863 48.94 4.20724 48.9928 3.97955C49.0456 3.75187 49.0852 3.52748 49.1083 3.30309C49.1479 3.05231 49.171 2.79163 49.1809 2.52435C49.204 2.33626 49.1578 2.16466 49.039 2.00297C48.9202 1.84458 48.775 1.7192 48.6034 1.63011L48.6067 1.6334Z" fill="#33673A"/>
<path d="M55.3551 5.29286C55.3254 5.38855 55.2726 5.55025 55.1901 5.77463C55.1109 6.00232 55.0152 6.2399 54.9063 6.48409C54.7974 6.73157 54.6885 6.95266 54.5763 7.14735C54.4641 7.34533 54.3585 7.45422 54.2628 7.47402C54.1671 7.49712 54.1341 7.40142 54.1605 7.19354C54.1968 6.90646 54.1836 6.63257 54.1242 6.36859C54.0615 6.09141 53.9691 5.82743 53.847 5.57005C53.7249 5.31267 53.5995 5.06188 53.4741 4.81109C53.3487 4.56361 53.2299 4.30623 53.1177 4.04884C53.0088 3.78816 52.9329 3.52088 52.8933 3.2371C52.8669 3.06551 52.8636 2.92692 52.8834 2.82132C52.9032 2.71573 52.9197 2.63653 52.9329 2.58374C52.9857 2.48474 52.9956 2.41215 52.9593 2.36925C52.8999 2.28016 52.8009 2.19437 52.6623 2.10527C52.5205 2.01618 52.3324 1.99967 52.0915 2.05577C51.8143 2.11847 51.5734 2.33295 51.3655 2.69593C51.1576 3.05891 50.9794 3.47138 50.8309 3.92675C50.6824 4.38542 50.5537 4.84079 50.4448 5.29616C50.3326 5.75153 50.2402 6.10791 50.1577 6.36529C50.1511 6.39169 50.128 6.42139 50.0917 6.45439C50.0554 6.48739 50.0158 6.52368 49.9729 6.55668C49.732 6.71507 49.5637 6.94276 49.4746 7.23974C49.3855 7.54002 49.3756 7.8436 49.4482 8.15708C49.501 8.38477 49.5901 8.60255 49.7188 8.80714C49.8475 9.01172 50.0158 9.18331 50.227 9.3252C50.4382 9.46709 50.6758 9.56278 50.9464 9.61558C51.217 9.66838 51.5272 9.65188 51.877 9.57268C52.5864 9.41099 53.1705 9.18001 53.6358 8.88633C54.0978 8.58935 54.4806 8.24947 54.7776 7.8667C55.0746 7.48392 55.3122 7.05824 55.4904 6.59297C55.6686 6.12771 55.8204 5.64924 55.9458 5.15097L55.3518 5.28626L55.3551 5.29286ZM52.3885 8.03169C52.1905 8.24617 51.9958 8.37816 51.8044 8.42106C51.5536 8.48046 51.3523 8.44086 51.2071 8.30227C51.0619 8.16368 50.9662 7.99539 50.92 7.7908C50.8903 7.60931 50.8936 7.41793 50.9299 7.21994C50.9662 7.02196 51.0289 6.86356 51.1147 6.74147C51.184 6.66227 51.1774 6.60618 51.0949 6.57648C51.0223 6.53028 50.9398 6.48408 50.854 6.44119C50.7682 6.39829 50.7385 6.3224 50.7649 6.2168C50.8144 6.04192 50.8738 5.80433 50.953 5.50075C51.0289 5.20047 51.1015 4.90019 51.1741 4.60651C51.217 4.45802 51.2599 4.37882 51.3094 4.36562C51.3688 4.35242 51.4348 4.41842 51.5074 4.56691C51.7384 5.01898 51.9727 5.46115 52.2103 5.89342C52.4479 6.32569 52.5897 6.75136 52.6359 7.17044C52.6689 7.53011 52.5864 7.8172 52.3885 8.03169Z" fill="#33673A"/>
<path d="M24.9459 22.9896C25.1208 22.4451 25.2924 21.9502 25.4706 21.5047C25.6455 21.0592 25.8171 20.6798 25.9854 20.363C26.1537 20.0462 26.3187 19.8053 26.4804 19.6403C26.5926 19.5149 26.6322 19.4061 26.5992 19.3137C26.4969 19.053 26.3583 18.8253 26.1867 18.6306C26.0151 18.4359 25.7577 18.3765 25.4211 18.4557C25.1373 18.5217 24.8667 18.7362 24.6093 19.0992C24.3519 19.4654 24.1077 19.9241 23.8833 20.4818C23.6556 21.0394 23.4444 21.6697 23.253 22.3759C23.0583 23.082 22.8801 23.8146 22.7151 24.5768C22.6887 24.7121 22.6359 24.8078 22.5567 24.8672C22.4775 24.9266 22.3785 24.9728 22.2565 24.9992C21.9331 25.0157 21.5932 25.052 21.2368 25.1048C20.8804 25.1576 20.5141 25.2137 20.1445 25.2698C19.8673 25.3061 19.7485 25.1906 19.7881 24.9266C19.8277 24.4778 19.8442 24.0587 19.8409 23.6694C19.8376 23.28 19.8112 22.9269 19.7683 22.6101C19.6231 21.6631 19.3195 21.013 18.8608 20.6534C18.4021 20.297 17.8609 20.1881 17.2405 20.3333C16.8082 20.4323 16.3594 20.627 15.8941 20.9207C15.4288 21.211 14.9701 21.5707 14.5213 21.9931C14.0725 22.4155 13.6468 22.884 13.2442 23.3955C12.8416 23.907 12.4984 24.4349 12.2113 24.9761C11.9242 25.5173 11.7065 26.0551 11.558 26.5864C11.4095 27.1176 11.3666 27.6093 11.4293 28.0647C11.4689 28.4244 11.6207 28.6718 11.8846 28.8005C12.1486 28.9325 12.4159 28.9655 12.6865 28.9028C12.7525 28.8863 12.8515 28.85 12.9802 28.7939C13.1056 28.7213 13.1617 28.5959 13.1485 28.4145C13.1353 28.0482 13.1749 27.639 13.2706 27.1836C13.3663 26.7283 13.4983 26.2597 13.6732 25.7812C13.8481 25.3028 14.0593 24.8342 14.3101 24.3788C14.5609 23.9235 14.8348 23.5044 15.1318 23.1249C15.4288 22.7454 15.7456 22.4221 16.0822 22.1614C16.4188 21.9007 16.7719 21.7258 17.1349 21.6433C17.4319 21.574 17.6563 21.6697 17.8081 21.9271C17.9599 22.1845 18.0457 22.5144 18.0688 22.9236C18.1315 23.7486 18.1018 24.557 17.9863 25.3523C17.9863 25.4678 17.9401 25.5733 17.8576 25.669C17.7718 25.768 17.6728 25.8373 17.554 25.8769C17.0359 26.0386 16.5508 26.2234 16.0954 26.4346C15.64 26.6458 15.2473 26.8867 14.9173 27.1539C14.5873 27.4212 14.3365 27.7248 14.1649 28.0614C13.9933 28.398 13.9471 28.7708 14.0263 29.18C14.0593 29.3285 14.1352 29.4671 14.2507 29.5991C14.3662 29.7278 14.4982 29.7773 14.6467 29.7443C14.7424 29.7212 14.8084 29.6717 14.8447 29.5925C15.1483 29.1239 15.508 28.718 15.9205 28.3749C16.333 28.0317 16.7818 27.7413 17.2669 27.5004C17.2933 27.4938 17.3098 27.4872 17.3164 27.4773C17.323 27.4707 17.3362 27.4608 17.3659 27.4542C17.4319 27.4377 17.4847 27.4575 17.5177 27.5136C17.5507 27.5697 17.5573 27.6423 17.5375 27.7347C17.1811 28.9688 16.7455 30.0743 16.2307 31.051C15.7159 32.0277 15.2176 32.7636 14.7325 33.2585C14.6203 33.3839 14.5873 33.4994 14.6401 33.5984C14.7193 33.7502 14.8678 33.9119 15.0922 34.0802C15.3166 34.2485 15.6103 34.2914 15.9733 34.2089C16.3792 34.1165 16.762 33.8459 17.1217 33.4037C17.4814 32.9583 17.8114 32.4072 18.115 31.7472C18.4186 31.0873 18.6892 30.358 18.9235 29.5595C19.1578 28.7576 19.3525 27.9525 19.5076 27.1341C19.5637 26.8801 19.7188 26.725 19.9762 26.6656C20.3161 26.6029 20.6527 26.5468 20.9827 26.4973C21.3127 26.4511 21.646 26.4082 21.9793 26.3752C22.2301 26.3587 22.3389 26.4841 22.2993 26.7481C22.1212 27.8271 21.9826 28.7906 21.8836 29.6354C21.7879 30.4834 21.7516 31.0873 21.778 31.4503C21.8143 31.9254 21.9364 32.2554 22.1443 32.4435C22.3521 32.6316 22.5897 32.6943 22.8603 32.6316C22.9131 32.6184 22.9923 32.5887 23.0946 32.5359C23.22 32.4633 23.2827 32.3577 23.2761 32.2158C23.3322 31.3513 23.418 30.4438 23.5269 29.4935C23.6358 28.5465 23.7975 27.5763 24.012 26.5897C24.0417 26.4115 24.1341 26.3191 24.2892 26.3125L24.3486 26.2993C24.6192 26.2366 24.7875 26.0782 24.8568 25.8208C24.9261 25.5635 24.9129 25.3259 24.8205 25.1048C24.7908 25.0421 24.738 25.019 24.6555 25.0355C24.4542 25.0256 24.3882 24.92 24.4542 24.7187C24.6126 24.1148 24.7809 23.5407 24.9525 22.9962L24.9459 22.9896Z" fill="#33673A"/>
<path d="M56.7213 19.9175C56.6883 20.0231 56.6289 20.198 56.5398 20.4488C56.4507 20.6996 56.3484 20.9569 56.2296 21.2275C56.1108 21.4981 55.9887 21.739 55.8666 21.9568C55.7412 22.1713 55.629 22.2934 55.5234 22.3165C55.4178 22.3396 55.3815 22.2373 55.4112 22.0096C55.4508 21.6961 55.4376 21.3925 55.3683 21.1054C55.299 20.8019 55.1967 20.5115 55.0647 20.2277C54.9294 19.9472 54.7941 19.67 54.6555 19.3961C54.5169 19.1223 54.3849 18.8451 54.2661 18.5613C54.144 18.2775 54.0648 17.9805 54.0219 17.6704C53.9922 17.4823 53.9889 17.3305 54.012 17.215C54.0351 17.0995 54.0516 17.0104 54.0681 16.9543C54.1275 16.8454 54.1341 16.7662 54.0978 16.72C54.0351 16.6243 53.9262 16.5286 53.7711 16.4296C53.616 16.3339 53.4081 16.3141 53.1441 16.3768C52.8405 16.4461 52.5765 16.6804 52.3488 17.0797C52.1211 17.479 51.9264 17.9277 51.7647 18.4293C51.603 18.9309 51.4612 19.4324 51.3391 19.9307C51.217 20.429 51.1147 20.8216 51.0256 21.1054C51.019 21.1351 50.9959 21.1681 50.9563 21.2044C50.9167 21.2407 50.8738 21.2803 50.8276 21.3166C50.5636 21.4882 50.3788 21.739 50.2831 22.0657C50.1907 22.3725 50.1808 22.686 50.2435 23.0061C50.2006 23.0754 50.1544 23.1414 50.1049 23.2074C49.8904 23.5077 49.6363 23.7651 49.3459 23.9828C49.0555 24.2006 48.7156 24.3557 48.3196 24.4481C47.9368 24.5372 47.6365 24.4976 47.4187 24.3326C47.2009 24.1676 47.0557 23.9267 46.9831 23.61C46.9402 23.4252 46.9303 23.2602 46.9534 23.1183C46.9765 22.9764 47.0953 22.8642 47.3131 22.785C47.884 22.6134 48.3757 22.3758 48.7915 22.0723C49.2073 21.7687 49.5439 21.442 49.8046 21.0922C50.0653 20.7425 50.2501 20.3795 50.3656 20.0066C50.4811 19.6337 50.5174 19.2939 50.4745 18.9837C50.4085 18.5811 50.2204 18.2709 49.9069 18.0531C49.5934 17.8353 49.1479 17.7924 48.5671 17.9244C47.9863 18.0564 47.4715 18.3336 47.0227 18.756C46.5706 19.1784 46.1977 19.6667 45.9007 20.2211C45.6037 20.7755 45.3892 21.3661 45.2572 21.9997C45.2077 22.2307 45.178 22.455 45.1615 22.6761C45.1021 22.8312 45.0394 22.9995 44.9734 23.1909C44.8876 23.4252 44.7886 23.6496 44.6698 23.864C44.551 24.0785 44.4124 24.2699 44.2507 24.4382C44.089 24.6065 43.9009 24.7154 43.6897 24.7649C43.6105 24.7814 43.5511 24.7913 43.5082 24.7847C43.396 24.7847 43.3201 24.7385 43.2805 24.6494C43.2409 24.5636 43.2409 24.458 43.2805 24.3359C43.495 23.7024 43.6435 23.0754 43.7194 22.4451C43.7953 21.8182 43.7788 21.2605 43.6666 20.7721C43.5577 20.297 43.33 19.9373 42.9835 19.6931C42.637 19.4489 42.2311 19.3763 41.7691 19.4819C41.3335 19.5809 40.8848 19.802 40.4228 20.1452C39.9608 20.4884 39.545 20.9173 39.1787 21.4387C38.8124 21.9601 38.522 22.5639 38.3042 23.2503C38.1854 23.6298 38.1095 24.0257 38.0765 24.4349C38.0204 24.6098 37.9544 24.8012 37.8785 25.0091C37.763 25.3259 37.6277 25.636 37.466 25.9363C37.3076 26.2366 37.1261 26.5006 36.9281 26.725C36.7301 26.9494 36.5189 27.0879 36.2945 27.1407C36.1493 27.1737 36.0602 27.0549 36.0272 26.7877C35.981 26.4643 36.0041 26.1178 36.0965 25.7416C36.1889 25.3655 36.2879 24.9761 36.3935 24.5702C36.4991 24.1643 36.5849 23.7486 36.6509 23.3262C36.7169 22.9005 36.7037 22.4781 36.608 22.0558C36.5057 21.607 36.3374 21.2935 36.1031 21.112C35.8688 20.9305 35.6114 20.8183 35.3276 20.782C35.0438 20.7425 34.7435 20.7392 34.4267 20.7689C34.1099 20.7986 33.8228 20.8084 33.5621 20.7919C33.3014 20.7754 33.0803 20.6996 32.8955 20.561C32.7107 20.4224 32.6018 20.165 32.5721 19.7822L32.5424 19.7459C32.4731 19.6931 32.3972 19.6568 32.3114 19.6436C32.2256 19.6304 32.1497 19.6304 32.0837 19.6436C31.9253 19.6799 31.7933 19.7558 31.6877 19.868C31.5821 19.9835 31.4963 20.1122 31.4336 20.2574C31.3709 20.4026 31.3313 20.561 31.3148 20.7326C31.2983 20.9041 31.3082 21.0592 31.3412 21.2044C31.3808 21.376 31.4567 21.5212 31.5656 21.6433C31.6778 21.7621 31.79 21.838 31.9088 21.8677C32.3048 21.9568 32.4665 22.1482 32.3939 22.4418C32.3411 22.7025 32.2883 22.9863 32.2355 23.2899C32.1794 23.5935 32.12 23.9003 32.0507 24.2072C31.9814 24.5141 31.9154 24.8078 31.8461 25.085C31.7933 25.3028 31.7438 25.4941 31.7009 25.6591H31.6811C31.592 26.0023 31.4765 26.3422 31.3313 26.6788C31.1861 27.0153 31.0079 27.3354 30.7901 27.6357C30.5757 27.936 30.3216 28.1934 30.0312 28.4112C29.7408 28.6289 29.3976 28.784 29.0049 28.8764C28.6221 28.9655 28.3218 28.9259 28.104 28.7609C27.8862 28.5959 27.741 28.3551 27.6684 28.0383C27.6255 27.8535 27.6156 27.6885 27.6387 27.5466C27.6618 27.4047 27.7806 27.2925 27.9984 27.2133C28.5693 27.0417 29.061 26.8042 29.4768 26.5006C29.8926 26.197 30.2292 25.8703 30.4899 25.5205C30.7505 25.1708 30.9353 24.8078 31.0508 24.4349C31.1663 24.062 31.2026 23.7222 31.1597 23.412C31.0937 23.0094 30.9056 22.6992 30.5922 22.4814C30.2787 22.2637 29.8299 22.2208 29.2524 22.3527C28.6716 22.4847 28.1568 22.7619 27.708 23.1843C27.2559 23.6067 26.883 24.095 26.586 24.6461C26.289 25.2005 26.0745 25.7944 25.9425 26.4247C25.8105 27.0582 25.7841 27.6423 25.8666 28.1802C25.9293 28.6388 26.0514 29.0117 26.2296 29.3021C26.4078 29.5925 26.619 29.8202 26.8632 29.9785C27.1074 30.1369 27.3813 30.2326 27.6882 30.2689C27.9951 30.3019 28.3053 30.2821 28.6221 30.2095C29.1897 30.0808 29.6814 29.8532 30.0972 29.5265C30.5163 29.2031 30.8693 28.8236 31.1564 28.3881C31.4468 27.9558 31.6811 27.4872 31.8659 26.9889C32.0177 26.5798 32.1464 26.1739 32.2586 25.7713H32.2817C32.351 25.5337 32.417 25.2731 32.4764 24.9893C32.5358 24.7055 32.5952 24.4184 32.6546 24.128C32.714 23.8377 32.7668 23.5473 32.8196 23.2569C32.8724 22.9665 32.912 22.7025 32.9384 22.4616C32.9813 22.1614 33.1265 21.9832 33.3773 21.9238C33.4301 21.9106 33.4994 21.9106 33.5852 21.9172C33.8987 21.9568 34.1693 22.036 34.4003 22.1581C34.628 22.2802 34.7798 22.4979 34.8524 22.8147C34.9151 23.0919 34.892 23.4219 34.7864 23.808C34.6808 24.194 34.5554 24.5999 34.4135 25.0256C34.2749 25.4546 34.1495 25.8967 34.0472 26.3587C33.9416 26.8207 33.9251 27.2562 33.9911 27.672C34.0307 27.8997 34.1 28.0812 34.199 28.2165C34.3013 28.3518 34.4234 28.4574 34.5653 28.5266C34.7072 28.5992 34.8557 28.6388 35.0141 28.652C35.1725 28.6652 35.3276 28.652 35.4893 28.6157C35.9942 28.5003 36.4331 28.2792 36.7994 27.9525C37.169 27.6258 37.4825 27.243 37.7465 26.8108C37.9082 26.5402 38.0534 26.2597 38.1788 25.966C38.2184 26.1211 38.2712 26.2696 38.3339 26.4049C38.4593 26.6821 38.6276 26.9131 38.8355 27.1011C39.0434 27.2892 39.2909 27.4146 39.578 27.4806C39.8651 27.5466 40.1786 27.54 40.5185 27.4608C40.9013 27.3717 41.2609 27.1869 41.5975 26.9032C41.9341 26.6194 42.2344 26.2729 42.5017 25.8637C42.6106 25.7284 42.7426 25.6426 42.901 25.6063C42.9802 25.5898 43.0396 25.5799 43.0825 25.5865C43.1815 25.5931 43.2739 25.5898 43.363 25.5865C43.4521 25.5799 43.5346 25.5667 43.6138 25.5502C43.9834 25.4644 44.2903 25.316 44.5411 25.0982C44.7886 24.8804 44.9965 24.6296 45.1582 24.3425C45.1912 24.2831 45.2242 24.2204 45.2539 24.1577C45.3232 24.4349 45.4156 24.6791 45.5377 24.8771C45.7159 25.1675 45.9271 25.3952 46.1713 25.5535C46.4155 25.7119 46.6894 25.8076 46.9963 25.8439C47.3032 25.8769 47.6134 25.8571 47.9302 25.7845C48.4978 25.6558 48.9895 25.4281 49.4053 25.1015C49.8244 24.7781 50.1775 24.3986 50.4646 23.963C50.4976 23.9135 50.5273 23.8608 50.5603 23.808C50.6989 24.0191 50.8771 24.2006 51.0949 24.3491C51.3259 24.5042 51.5898 24.6098 51.8868 24.6659C52.1838 24.722 52.5237 24.7055 52.9065 24.6197C53.6853 24.4415 54.3255 24.1907 54.8337 23.864C55.3419 23.5407 55.7577 23.1678 56.0844 22.7454C56.4111 22.3231 56.6718 21.8578 56.8665 21.3496C57.0612 20.8414 57.2295 20.3135 57.3681 19.769L56.7147 19.9175H56.7213ZM47.0161 22.0591C47.0887 21.7093 47.1943 21.3562 47.3329 20.9965C47.4715 20.6402 47.6299 20.3102 47.8048 20.0132C47.9797 19.7162 48.1678 19.4654 48.3691 19.2609C48.5704 19.0563 48.7783 18.9276 48.9895 18.8781C49.2007 18.8286 49.3558 18.8451 49.4581 18.9276C49.5604 19.0101 49.6198 19.1223 49.6396 19.2708C49.6594 19.4753 49.6198 19.7195 49.5274 20.0033C49.4317 20.2871 49.2865 20.5775 49.0819 20.8744C48.8806 21.1714 48.6298 21.4453 48.3361 21.6994C48.0424 21.9535 47.7025 22.1548 47.3197 22.2966L47.2405 22.3165C47.1613 22.3363 47.0986 22.3197 47.0557 22.2769C47.0095 22.2307 46.9963 22.1581 47.0161 22.0558V22.0591ZM27.708 26.4874C27.7806 26.1376 27.8862 25.7845 28.0248 25.4248C28.1634 25.0685 28.3218 24.7385 28.4967 24.4415C28.6716 24.1445 28.8597 23.8937 29.061 23.6892C29.2623 23.4846 29.4702 23.3559 29.6814 23.3064C29.8926 23.2569 30.0477 23.2734 30.15 23.3559C30.2523 23.4351 30.3117 23.5506 30.3315 23.6991C30.3513 23.9036 30.3117 24.1478 30.2193 24.4316C30.1236 24.7154 29.9784 25.0058 29.7738 25.3028C29.5725 25.5997 29.3217 25.8736 29.028 26.1277C28.7343 26.3818 28.3944 26.5831 28.0116 26.725L27.9324 26.7448C27.8532 26.7646 27.7905 26.7481 27.7476 26.7052C27.7014 26.659 27.6882 26.5864 27.708 26.4841V26.4874ZM42.9406 21.7885C42.9307 22.0558 42.9043 22.3296 42.8614 22.6167C42.8416 22.7751 42.6865 22.9203 42.3994 23.0556C42.1123 23.1909 41.9275 23.4219 41.8483 23.742C41.7691 24.0653 41.7625 24.3656 41.8252 24.6428C41.8714 24.7847 41.8846 24.9134 41.8615 25.0289C41.8384 25.1444 41.8021 25.2434 41.7526 25.3226C41.4391 25.768 41.0861 26.0386 40.6901 26.1277C40.4525 26.1838 40.2743 26.1277 40.1522 25.9594C40.0301 25.7944 39.9575 25.5601 39.9311 25.2632C39.8849 24.6923 39.9344 24.1346 40.0895 23.5935C40.2413 23.0523 40.4393 22.5672 40.6802 22.1383C40.9211 21.7093 41.1851 21.3529 41.4754 21.0724C41.7658 20.7919 42.0265 20.6237 42.2641 20.5676C42.4357 20.528 42.571 20.561 42.67 20.66C42.769 20.7623 42.8416 20.9107 42.8878 21.1087C42.9307 21.2935 42.9472 21.5179 42.9373 21.7819L42.9406 21.7885ZM53.4675 22.9203C53.253 23.1579 53.0385 23.2998 52.8273 23.3493C52.5501 23.412 52.3323 23.3691 52.1739 23.2173C52.0155 23.0655 51.9099 22.8807 51.8571 22.6563C51.8241 22.455 51.8274 22.2472 51.8703 22.0294C51.9099 21.8116 51.9792 21.6367 52.0716 21.5047C52.1475 21.4189 52.1409 21.3562 52.0518 21.3232C51.9693 21.2737 51.8835 21.2242 51.7878 21.1747C51.6954 21.1285 51.6624 21.046 51.6888 20.9272C51.7416 20.7359 51.8109 20.4719 51.8934 20.1419C51.9759 19.8119 52.0584 19.4852 52.1376 19.1619C52.1838 19.0002 52.2333 18.9111 52.2861 18.8979C52.3521 18.8814 52.4247 18.9573 52.5039 19.119C52.758 19.6172 53.0121 20.1023 53.2761 20.5742C53.5368 21.0493 53.6919 21.5146 53.7414 21.9766C53.7777 22.3725 53.6853 22.686 53.4708 22.9236L53.4675 22.9203Z" fill="#33673A"/>
</svg>
